<svg width="33" height="30" viewBox="0 0 33 30" fill="none" xmlns="http://www.w3.org/2000/svg">
<path d="M11.3955 0.407445C11.2122 1.27625 9.68652 8.53193 9.76953 8.89863C9.85815 9.28873 13.5298 8.90027 15.3545 8.65726L12.4038 15.9916L16.1489 16.6803L15.4805 25.0351L20.7385 12.0504L17.3252 12.8246L22.9805 3.85138L17.6167 5.06797L20.1494 0.633092C23.4009 -0.360835 27.0808 0.428135 29.6526 3C33.3625 6.71 33.3625 12.725 29.6526 16.435L16.2175 29.8701L2.78247 16.435C-0.92749 12.725 -0.92749 6.71 2.78247 3C5.12207 0.660344 8.37866 -0.203853 11.3955 0.407445Z" fill="black"/>
</svg>
